# xmcd CD database file
#
# Track frame offsets:
#	150
#	15006
#	33884
#	45809
#	60537
#	75382
#	89405
#	105961
#	120887
#	134349
#	154765
#	170127
#	184370
#	199761
#	208612
#	230582
#	248847
#	263931
#	276594
#	289173
#
# Disc length: 4068 seconds
#
# Revision: 0
# Processed by: cddbd v1.5.1PL2 Copyright (c) Steve Scherf et al.
# Submitted via: CDex 1.51
#
DISCID=090fe214
DTITLE=Lambert, Hendricks and Ross - Sing Ang with Basie* /The Swingers
DYEAR=1958
DGENRE=Jazz
TTITLE0=Jumping at the Woodside*
TTITLE1=Going to Chicago Blues*
TTITLE2=Tickle Toe*
TTITLE3=Let Me See*
TTITLE4=Every Tub*
TTITLE5=Shorty George*
TTITLE6=Rusty Dusty Blues*
TTITLE7=The King*
TTITLE8=Swinging the Blues*
TTITLE9=Li'l Darling*
TTITLE10=Airgin
TTITLE11=Babe's Blues
TTITLE12=Dark Cloud
TTITLE13=Jackie
TTITLE14=Swinging till the Girls Come Home 
TTITLE15=Four
TTITLE16=Little Niles
TTITLE17=Where
TTITLE18=Now's the Time
TTITLE19=Love Makes the World Go Round
EXTD=YEAR: 1958
EXTT0=
EXTT1=
EXTT2=
EXTT3=
EXTT4=
EXTT5=
EXTT6=
EXTT7=
EXTT8=
EXTT9=
EXTT10=
EXTT11=
EXTT12=
EXTT13=
EXTT14=
EXTT15=
EXTT16=
EXTT17=
EXTT18=
EXTT19=
PLAYORDER=
